<?xml version="1.0" encoding="UTF-8"?>
<svg width="512px" height="416px" viewBox="0 0 512 416" version="1.1" xmlns="http://www.w3.org/2000/svg" xmlns:xlink="http://www.w3.org/1999/xlink">
    <!-- Generator: Sketch 56.3 (81716) - https://sketch.com -->
    <title>logo</title>
    <desc>Created with Sketch.</desc>
    <g id="Page-1" stroke="none" stroke-width="1" fill="none" fill-rule="evenodd">
        <g id="logo" fill="#007BFF" fill-rule="nonzero">
            <path d="M80,320 L16,320 C7.163444,320 0,327.163444 0,336 L0,400 C0,408.836556 7.163444,416 16,416 L80,416 C88.836556,416 96,408.836556 96,400 L96,336 C96,327.163444 88.836556,320 80,320 Z M80,0 L16,0 C7.163444,0 0,7.163444 0,16 L0,80 C0,88.836556 7.163444,96 16,96 L80,96 C88.836556,96 96,88.836556 96,80 L96,16 C96,7.163444 88.836556,0 80,0 Z M80,160 L16,160 C7.163444,160 0,167.163444 0,176 L0,240 C0,248.836556 7.163444,256 16,256 L80,256 C88.836556,256 96,248.836556 96,240 L96,176 C96,167.163444 88.836556,160 80,160 Z M496,336 L176,336 C167.163444,336 160,343.163444 160,352 L160,384 C160,392.836556 167.163444,400 176,400 L496,400 C504.836556,400 512,392.836556 512,384 L512,352 C512,343.163444 504.836556,336 496,336 Z M496,16 L176,16 C167.163444,16 160,23.163444 160,32 L160,64 C160,72.836556 167.163444,80 176,80 L496,80 C504.836556,80 512,72.836556 512,64 L512,32 C512,23.163444 504.836556,16 496,16 Z M496,176 L176,176 C167.163444,176 160,183.163444 160,192 L160,224 C160,232.836556 167.163444,240 176,240 L496,240 C504.836556,240 512,232.836556 512,224 L512,192 C512,183.163444 504.836556,176 496,176 Z" id="Shape"></path>
        </g>
    </g>
</svg>